<?xml version="1.0" encoding="utf-8"?>
<!-- Generator: Adobe Illustrator 16.0.0, SVG Export Plug-In . SVG Version: 6.00 Build 0)  -->
<!DOCTYPE svg PUBLIC "-//W3C//DTD SVG 1.1//EN" "http://www.w3.org/Graphics/SVG/1.1/DTD/svg11.dtd">
<svg version="1.1" id="图层_1" xmlns="http://www.w3.org/2000/svg" xmlns:xlink="http://www.w3.org/1999/xlink" x="0px" y="0px"
	 width="51.833px" height="51.833px" viewBox="0 0 51.833 51.833" enable-background="new 0 0 51.833 51.833" xml:space="preserve">
<path fill="#1B99D7" d="M25.917,51.833C11.626,51.833,0,40.208,0,25.917C0,11.626,11.626,0,25.917,0
	c14.29,0,25.916,11.626,25.916,25.917C51.833,40.208,40.207,51.833,25.917,51.833z M25.917,3C13.28,3,3,13.281,3,25.917
	c0,12.637,10.28,22.917,22.917,22.917c12.636,0,22.916-10.28,22.916-22.917C48.833,13.281,38.553,3,25.917,3z"/>
<polygon fill="#1B99D7" points="31.291,42.458 14.722,25.888 31.233,9.377 33.354,11.499 18.964,25.888 33.412,40.336 "/>
</svg>
