<?xml version="1.0" encoding="iso-8859-1"?>
<!-- Generator: Adobe Illustrator 16.0.0, SVG Export Plug-In . SVG Version: 6.00 Build 0)  -->
<!DOCTYPE svg PUBLIC "-//W3C//DTD SVG 1.1//EN" "http://www.w3.org/Graphics/SVG/1.1/DTD/svg11.dtd">
<svg version="1.1" id="&#x56FE;&#x5C42;_1" xmlns="http://www.w3.org/2000/svg" xmlns:xlink="http://www.w3.org/1999/xlink" x="0px"
	 y="0px" width="50px" height="61.211px" viewBox="0 0 50 61.211" style="enable-background:new 0 0 50 61.211;"
	 xml:space="preserve">
<g>
	<g>
		<path style="fill:#FFFFFF;" d="M-0.333,60.877c0,0,1-0.5,2.692-1.467c0.848-0.479,1.865-1.083,3.014-1.8
			c0.569-0.366,1.175-0.756,1.813-1.167c0.631-0.421,1.346-0.779,2.041-1.235c5.655-3.479,12.817-8.866,18.712-15.498
			c1.493-1.636,2.873-3.37,4.182-5.11c0.657-0.869,1.249-1.773,1.867-2.644c0.572-0.901,1.136-1.791,1.691-2.667
			c0.51-0.902,1.011-1.79,1.502-2.658c0.446-0.892,0.882-1.765,1.307-2.615c0.781-1.731,1.494-3.38,2.039-4.946
			c0.141-0.39,0.294-0.766,0.412-1.145c0.108-0.382,0.224-0.751,0.357-1.105c0.257-0.711,0.521-1.381,0.734-2.022
			c0.383-1.293,0.756-2.417,0.999-3.36c0.468-1.894,0.736-2.977,0.736-2.977s-0.135,1.11-0.371,3.053
			c-0.141,0.97-0.393,2.133-0.641,3.482c-0.328,1.325-0.633,2.855-1.286,4.414c-0.555,1.594-1.28,3.271-2.075,5.032
			c-0.432,0.864-0.875,1.751-1.329,2.658c-0.499,0.883-1.008,1.785-1.526,2.702c-0.564,0.889-1.138,1.793-1.718,2.708
			c-0.627,0.884-1.229,1.802-1.895,2.684c-1.328,1.766-2.729,3.524-4.241,5.183c-5.976,6.722-13.214,12.164-18.929,15.68
			c-0.717,0.438-1.389,0.885-2.066,1.245c-0.686,0.343-1.336,0.668-1.947,0.974c-1.23,0.594-2.313,1.087-3.213,1.475
			C0.73,60.529-0.333,60.877-0.333,60.877z"/>
	</g>
	<g>
		<path style="fill:#FFFFFF;" d="M31.654,14.671c1.181-0.965,2.309-1.971,3.347-3.057c0.257-0.274,0.54-0.517,0.824-0.758
			c0.281-0.246,0.548-0.505,0.812-0.769c0.541-0.514,1.036-1.07,1.535-1.621l0.709-0.859c0.24-0.284,0.441-0.595,0.664-0.891
			c0.224-0.296,0.434-0.601,0.621-0.919c0.19-0.316,0.401-0.622,0.575-0.946l0.505-0.982c0.182-0.322,0.285-0.676,0.433-1.012
			c0.138-0.34,0.283-0.678,0.367-1.034l0.301-1.055l0.18-0.629l0.534,0.292c0.462,0.253,0.783,0.529,1.143,0.823
			c0.335,0.302,0.661,0.614,0.955,0.951c0.605,0.661,1.116,1.391,1.583,2.143c0.214,0.386,0.444,0.765,0.645,1.157l0.561,1.196
			l0.472,1.229c0.17,0.406,0.272,0.833,0.403,1.25c0.119,0.42,0.267,0.835,0.349,1.264l0.285,1.278
			c0.109,0.424,0.146,0.858,0.221,1.288l0.208,1.29c0.034,0.434,0.003,0.874,0.008,1.308c-0.008,0.436,0,0.869-0.021,1.302
			c-0.055,0.868-0.122,1.731-0.203,2.589c-0.13-0.858-0.245-1.71-0.349-2.558c-0.063-0.423-0.155-0.843-0.231-1.263
			c-0.071-0.42-0.178-0.835-0.22-1.256c-0.049-0.42-0.117-0.837-0.181-1.255c-0.073-0.416-0.108-0.84-0.214-1.249l-0.275-1.234
			c-0.078-0.416-0.221-0.812-0.336-1.217c-0.126-0.4-0.224-0.812-0.386-1.199l-0.45-1.174l-0.533-1.135
			c-0.19-0.371-0.406-0.727-0.607-1.091c-0.438-0.705-0.916-1.387-1.471-1.993c-0.271-0.311-0.566-0.592-0.867-0.865
			c-0.302-0.251-0.646-0.526-0.938-0.686l0.713-0.336L43,2.119c-0.092,0.383-0.245,0.743-0.392,1.104
			c-0.156,0.358-0.27,0.736-0.46,1.076l-0.534,1.039c-0.185,0.342-0.404,0.663-0.605,0.996c-0.197,0.335-0.417,0.654-0.65,0.963
			c-0.232,0.31-0.444,0.636-0.694,0.931l-0.738,0.894c-0.518,0.572-1.031,1.148-1.589,1.679c-0.272,0.272-0.549,0.54-0.838,0.794
			c-0.279,0.265-0.548,0.542-0.88,0.746c-0.634,0.441-1.279,0.86-1.938,1.252C33.028,13.994,32.349,14.354,31.654,14.671z"/>
	</g>
</g>
</svg>
